<mxfile host="app.diagrams.net" modified="2023-05-26T09:15:26.259Z" agent="Mozilla/5.0 (Windows NT 10.0; Win64; x64; rv:109.0) Gecko/20100101 Firefox/110.0" version="21.3.2" etag="XtaKvcDjqsy1msimPg7-" type="github">
  <diagram name="Page-1" id="ZFycrkBD-adm0weO2iwv">
    <mxGraphModel>
      <root>
        <mxCell id="0" />
        <mxCell id="1" parent="0" />
      </root>
    </mxGraphModel>
  </diagram>
</mxfile>
